# File exported by Houdini 21.0.512 (www.sidefx.com)
# 14 points
# 42 vertices
# 9 primitives
# Bounds: [-0.5, -0.5, 0.0345639884] to [-0.183137447, -0.221360832, 0.5]
g 
v -0.5 -0.5 0.5
v -0.374615014 -0.5 0.5
v -0.5 -0.481058717 0.5
v -0.374615014 -0.440102756 0.5
v -0.5 -0.5 0.0471898019
v -0.183137447 -0.5 0.154339388
v -0.216838986 -0.5 0.0345639922
v -0.5 -0.369267762 0.0471897908
v -0.5 -0.292113334 0.216836989
v -0.216838986 -0.297860354 0.0345639884
v -0.183137447 -0.234205037 0.154339388
v -0.286941677 -0.305856377 0.341729641
v -0.188510373 -0.231257722 0.164038748
v -0.259688437 -0.221360832 0.228441447
vn -1 -0 -0
vn -1 0 0
vn -1 0 0
vn -1 0 0
vn -1 0 0
vn 0 0 1
vn 0 0 1
vn 0 0 1
vn -0 -0 1
vn 0 -1 0
vn 0 -1 0
vn 0 -1 0
vn -0 -1 -0
vn 0 -1 0
vn 0.874754071 0 0.484567106
vn 0.874754071 0 0.484566987
vn 0.874754071 -3.26584484e-07 0.484567106
vn 0.874753952 3.38107981e-07 0.484567314
vn 0.874754071 -0 0.484567076
vn 0.874754071 -0 0.484567165
vn -0.0445445329 -8.54018509e-08 -0.999007344
vn -0.0445444919 -8.54018651e-08 -0.999007404
vn -0.0445445105 -1.84109972e-08 -0.999007404
vn -0.0445445403 -1.84109972e-08 -0.999007404
vn 0.96262008 -4.99166797e-09 -0.270855099
vn 0.962620139 -4.99166797e-09 -0.270855099
vn 0.962620139 -0 -0.270855069
vn 0.962620139 -0 -0.270855099
vn -0.240720674 0.883514106 -0.401816368
vn -0.240720719 0.883514047 -0.401816368
vn -0.240720689 0.883513987 -0.401816577
vn -0.240721568 0.883513331 -0.401817501
vn -0.240719721 0.883514225 -0.401816696
vn -0.240720659 0.883514106 -0.401816338
vn -0.262200713 0.80271709 0.535626829
vn -0.262200862 0.80271703 0.535626769
vn -0.262200892 0.80271709 0.535626769
vn -0.262200832 0.80271703 0.535626829
vn -0.262200803 0.80271709 0.535626709
vn 0.593313813 0.570307016 0.568092108
vn 0.593313813 0.570307016 0.568092108
vn 0.593313813 0.570307016 0.568092108
g outside
f 1//1 3//2 9//3 8//4 5//5
f 2//6 4//7 3//8 1//9
f 7//10 6//11 2//12 1//13 5//14
g inside
f 6//15 11//16 13//17 12//18 4//19 2//20
f 5//21 8//22 10//23 7//24
f 7//25 10//26 11//27 6//28
f 8//29 9//30 14//31 13//32 11//33 10//34
f 12//35 14//36 9//37 3//38 4//39
f 12//40 13//41 14//42
